<svg width="374" height="451" viewBox="0 0 374 451" fill="none" xmlns="http://www.w3.org/2000/svg">
<path d="M372.931 194.881C372.931 208.975 371.943 222.698 369.968 236.05C368.239 249.155 365.646 262.506 362.189 276.106C358.98 278.578 357.004 281.669 356.263 285.377C355.523 289.087 354.287 292.549 352.56 295.762C351.078 298.483 349.103 301.45 346.634 304.664C344.164 307.631 341.448 310.846 338.485 314.307C335.522 317.521 332.559 320.859 329.595 324.322C326.632 327.782 324.163 331.245 322.188 334.705C314.78 337.179 309.472 342.495 306.261 350.654C302.311 352.137 298.237 353.869 294.039 355.847C289.842 357.577 286.879 360.668 285.15 365.119C276.015 369.817 267.372 375.256 259.224 381.438C251.323 387.372 242.68 392.565 233.297 397.014C232.063 398.251 230.582 399.24 228.853 399.982C227.371 400.477 225.767 401.095 224.038 401.837C222.556 402.578 221.075 403.444 219.593 404.433C218.358 405.669 217.618 407.153 217.37 408.883C216.383 408.883 215.643 408.636 215.149 408.142C214.903 407.894 214.161 407.647 212.927 407.401C210.21 408.883 208.977 411.233 209.223 414.446C208.235 413.952 206.877 413.705 205.148 413.705C202.185 413.705 199.222 414.57 196.259 416.302C193.544 418.28 191.198 420.258 189.223 422.236C186.26 423.718 182.802 425.203 178.851 426.685C175.148 428.17 172.433 430.642 170.703 434.105C169.716 433.116 168.234 432.62 166.259 432.62C164.036 432.62 161.691 433.238 159.221 434.475C156.752 435.959 154.901 437.565 153.667 439.296C150.209 439.296 146.875 439.791 143.666 440.78C140.703 442.017 137.616 443.129 134.406 444.118C131.196 445.355 127.986 446.466 124.777 447.455C121.813 448.444 118.604 448.94 115.147 448.94C113.171 448.94 111.69 448.444 110.702 447.455C109.714 446.466 108.48 445.601 106.998 444.86C105.764 445.849 103.541 446.962 100.332 448.198C97.3685 449.433 95.1462 450.052 93.6647 450.052C90.9486 450.052 88.2325 449.681 85.5164 448.94C83.0472 448.198 80.4546 447.333 77.7384 446.344L69.9605 443.747C67.4913 443.006 64.7752 442.51 61.8122 442.263C59.5899 440.285 56.8738 438.183 53.6638 435.959C50.7008 433.981 47.7378 433.362 44.7747 434.105C43.5402 430.395 41.6882 427.181 39.219 424.461C36.7498 421.74 33.9103 419.269 30.7004 417.043C29.9596 416.549 29.0955 416.054 28.1078 415.559C27.3669 415.313 26.7497 414.941 26.2558 414.446C25.0212 413.705 23.91 412.222 22.9224 409.996C21.9347 407.771 20.8236 406.658 19.589 406.658C19.3421 406.658 18.9716 406.782 18.4778 407.029C18.231 407.277 17.984 407.401 17.7372 407.401C17.2433 405.175 16.5025 403.073 15.5148 401.095C14.5271 398.87 12.7987 397.51 10.3295 397.014C8.3542 390.587 6.99614 384.157 6.25538 377.73C5.51463 371.299 4.52695 364.872 3.29236 358.442C2.79852 356.464 2.18122 354.115 1.44046 351.396C0.946626 348.429 0.699707 345.833 0.699707 343.607C0.699707 339.898 1.19355 335.448 2.18122 330.256C3.41582 325.063 4.40349 320.488 5.14425 316.532C8.10728 302.191 12.058 288.345 16.9963 274.993C21.9347 261.394 27.2435 247.918 32.9226 234.566C38.8487 221.214 44.8983 207.986 51.0711 194.881C57.2442 181.777 63.0468 168.425 68.479 154.825C69.4666 154.825 70.084 154.578 70.3308 154.084L71.442 152.23C71.9358 151.487 72.3062 150.869 72.5532 150.374C73.047 149.88 73.9112 149.633 75.1458 149.633V148.52C74.8989 147.036 75.1458 145.8 75.8865 144.81C76.8742 143.821 77.1211 142.215 76.6273 139.989C80.578 135.539 83.9115 130.594 86.6274 125.154C89.3437 119.467 92.0597 113.904 94.7759 108.464C97.7389 103.024 100.825 97.7084 104.035 92.5158C107.245 87.3235 111.319 82.8729 116.258 79.1639V76.5677C116.011 75.3314 116.011 74.0951 116.258 72.8588C116.752 71.3753 117.616 70.3862 118.85 69.8917C123.295 65.4411 126.999 60.9904 129.962 56.5398C132.925 52.0891 135.889 47.7621 138.852 43.5586C142.061 39.1079 145.518 35.0282 149.221 31.3194C153.172 27.3632 158.11 23.7779 164.036 20.5637C166.753 19.3274 168.728 17.4729 169.962 15.0003C171.197 12.5277 172.803 10.7969 174.778 9.80785C175.766 9.31333 176.753 9.06607 177.741 9.06607C178.975 8.81881 180.086 8.44793 181.074 7.95341C185.272 6.71711 189.469 5.23356 193.666 3.50275C197.865 1.52468 202.309 0.535645 207.001 0.535645C212.927 0.535645 217.37 2.26646 220.333 5.72808C223.544 8.94244 226.013 12.8986 227.742 17.5966C229.718 22.2945 231.322 27.2395 232.557 32.4321C233.791 37.6244 235.766 42.0751 238.483 45.7841C245.891 46.2786 253.422 47.1439 261.076 48.3802C268.73 49.3693 275.397 52.4599 281.077 57.6525C281.569 57.8996 282.187 58.0233 282.928 58.0233C284.162 58.0233 284.78 57.5288 284.78 56.5398C284.78 55.5507 285.398 55.0562 286.632 55.0562H287.743C295.151 59.5069 302.188 64.452 308.854 69.8917C315.768 75.0842 322.559 80.5239 329.225 86.2108C330.461 87.1998 331.695 88.1889 332.929 89.1779C334.411 89.9197 335.645 90.9087 336.633 92.145C337.867 93.6286 338.978 95.3594 339.966 97.3375C341.201 99.3155 342.313 101.046 343.3 102.53C355.645 124.041 363.918 147.16 368.115 171.886C368.609 174.605 368.98 177.202 369.226 179.675C369.72 182.147 369.968 184.496 369.968 186.722C369.968 188.946 370.46 190.43 371.448 191.172C372.436 191.667 372.931 192.903 372.931 194.881ZM344.411 213.796C344.411 203.906 343.177 194.386 340.707 185.238C341.941 184.744 342.683 184.001 342.929 183.012C343.423 181.777 343.671 180.54 343.671 179.304V177.449L339.226 169.29C338.978 165.828 338.238 162.613 337.003 159.646C336.015 156.679 334.781 153.712 333.3 150.745C331.818 147.778 330.337 144.81 328.855 141.843C327.62 138.876 326.756 135.663 326.262 132.201C322.312 129.234 318.731 125.896 315.522 122.187C312.559 118.231 309.842 114.151 307.373 109.948C305.645 109.206 304.04 108.711 302.558 108.464C301.077 108.217 300.583 106.857 301.077 104.384C296.632 103.148 292.558 101.417 288.854 99.192C285.398 96.7194 281.941 93.9994 278.484 91.0323C272.804 89.7961 267.126 88.3126 261.446 86.5816C256.014 84.6036 250.459 83.6145 244.779 83.6145C240.828 83.6145 237.002 84.3564 233.297 85.84C234.532 87.8181 235.149 90.0432 235.149 92.5158C235.149 94.7413 235.396 96.9665 235.89 99.192C243.791 101.17 248.606 105.992 250.335 113.657C249.1 114.398 247.988 115.387 247.001 116.624C246.013 117.613 245.025 118.602 244.038 119.591C243.298 120.333 242.31 121.074 241.075 121.816C239.841 122.558 238.359 122.929 236.631 122.929C233.173 122.929 230.458 122.311 228.482 121.074C226.755 119.838 223.914 119.591 219.963 120.333C215.766 116.624 211.692 112.791 207.741 108.835C203.791 104.632 199.346 100.923 194.408 97.7084C193.666 95.2358 192.432 93.0104 190.703 91.0323C189.223 89.0542 187.618 87.1998 185.889 85.469C184.407 83.491 182.926 81.5129 181.444 79.5348C180.21 77.3095 179.593 74.8369 179.593 72.1171C179.593 70.3862 179.716 69.15 179.963 68.4082C178.481 67.9137 177.371 67.6664 176.629 67.6664C174.654 67.6664 172.803 68.4082 171.073 69.8917C169.346 71.128 167.37 71.9935 165.147 72.488C163.172 78.4222 160.333 83.6145 156.63 88.0652C152.925 92.5158 149.098 96.8429 145.148 101.046C141.197 105.25 137.493 109.7 134.036 114.398C130.826 118.849 128.48 124.412 126.999 131.088C119.097 140.978 111.813 152.23 105.147 164.839C98.4796 177.202 93.4178 189.317 89.9609 201.185C84.2818 207.616 79.8372 214.415 76.6273 221.585C73.4174 228.756 71.5655 236.668 71.0717 245.322C69.837 246.064 68.8493 247.053 68.1087 248.289L64.4047 255.706C63.9109 256.943 63.0468 257.932 61.8122 258.673V260.528C61.8122 262.506 61.4417 264.361 60.7011 266.091C59.9602 267.575 59.0961 269.058 58.1084 270.542C57.3676 272.025 56.6269 273.509 55.8861 274.993C55.1453 276.23 54.775 277.713 54.775 279.443C54.775 281.421 55.2689 283.399 56.2565 285.377C53.5403 285.872 51.6885 287.355 50.7008 289.828C49.96 292.054 48.849 294.032 47.3675 295.762C46.3798 303.675 45.3921 311.711 44.4044 319.87C43.4168 328.03 42.9229 336.066 42.9229 343.978C42.9229 353.126 43.9106 362.398 45.8859 371.795C48.1081 374.02 50.0834 376.493 51.812 379.212C53.5403 381.932 55.2689 384.529 56.9972 387.001C58.9725 389.474 61.0714 391.699 63.2937 393.677C65.5159 395.408 68.479 396.521 72.1828 397.014C72.1828 398.746 72.5532 399.982 73.2938 400.724C74.0347 401.466 74.6519 402.455 75.1458 403.691C80.3311 405.423 85.7633 406.782 91.4424 407.771C97.1216 409.007 102.801 409.625 108.48 409.625C112.431 409.625 116.381 409.131 120.332 408.142C124.53 407.153 127.986 405.175 130.703 402.208C143.295 401.713 155.765 398.746 168.11 393.306C180.704 387.867 192.186 381.932 202.555 375.504H210.334C213.05 371.795 216.383 368.828 220.333 366.602C224.284 364.13 228.359 361.905 232.557 359.927C233.297 359.431 234.285 358.938 235.52 358.442C236.754 357.949 237.742 357.453 238.483 356.96C241.198 354.982 243.915 352.756 246.631 350.283C249.594 347.811 252.557 345.462 255.52 343.236C260.458 339.528 265.52 335.942 270.705 332.481C275.891 329.019 280.829 325.311 285.52 321.355C290.458 317.398 295.027 313.194 299.225 308.744C303.67 304.045 307.373 298.853 310.336 293.166C311.817 293.166 312.929 292.795 313.67 292.054C314.658 291.065 315.398 290.076 315.892 289.087C316.633 288.098 317.373 287.232 318.113 286.49C319.101 285.749 320.46 285.377 322.188 285.377C322.188 283.153 322.559 281.297 323.299 279.815C324.287 278.084 325.275 276.6 326.262 275.363C327.498 273.881 328.608 272.52 329.595 271.284C330.831 270.047 331.941 268.44 332.929 266.462V256.078C336.879 249.648 339.72 242.849 341.448 235.679C343.423 228.508 344.411 221.214 344.411 213.796Z" fill="#000000"/>
</svg>
