<svg width="393" height="489" viewBox="0 0 393 489" fill="none" xmlns="http://www.w3.org/2000/svg">
<path d="M392.592 6.81497C392.592 8.50118 392.286 10.082 391.676 11.5574C391.369 13.0329 391.523 14.6137 392.134 16.2999C382.655 20.3046 376.082 25.574 372.412 32.1081C367.52 33.7943 363.546 36.1128 360.487 39.0637C357.431 41.8038 354.525 44.7546 351.774 47.9163C349.328 50.8671 346.729 53.818 343.978 56.7689C341.225 59.5089 337.556 61.8275 332.971 63.7245V70.6801C330.525 70.2585 328.842 70.4693 327.925 71.3124C327.314 71.9447 326.242 72.4717 324.714 72.8933C318.599 80.9027 312.331 88.9122 305.911 96.9217C299.489 104.72 291.539 111.781 282.062 118.104C279.616 122.531 276.863 126.852 273.805 131.068C270.748 135.283 267.537 139.499 264.174 143.714C260.812 147.93 257.601 152.145 254.543 156.361C251.486 160.576 249.04 164.897 247.205 169.323C241.09 173.749 235.891 178.703 231.611 184.183C227.33 189.452 223.203 194.826 219.229 200.308C215.56 205.577 211.431 210.845 206.845 216.115C202.565 221.385 197.366 226.233 191.251 230.659C191.557 232.556 191.099 234.136 189.876 235.401C188.653 236.666 188.04 238.036 188.04 239.511C188.04 244.359 191.404 249.84 198.131 255.953C205.162 261.854 213.419 267.861 222.898 273.974C232.376 279.875 241.853 285.356 251.333 290.414C260.812 295.473 268.15 299.371 273.347 302.112C281.297 299.794 288.328 297.475 294.444 295.156C300.559 292.626 307.897 291.152 316.458 290.73C320.74 292.206 324.103 294.208 326.549 296.737C329.301 299.055 330.676 301.796 330.676 304.957C330.676 309.806 328.537 314.443 324.256 318.868C319.975 323.084 315.235 326.562 310.038 329.303C305.146 329.934 300.254 330.462 295.362 330.883C290.469 331.305 285.577 331.515 280.685 331.515C270.901 331.515 261.117 330.883 251.333 329.618C241.853 328.142 232.376 326.562 222.898 324.876C217.699 320.239 211.891 316.233 205.469 312.861C199.354 309.278 192.474 306.433 184.831 304.325C184.524 301.796 183.608 299.688 182.078 298.002C180.55 296.316 178.716 294.84 176.575 293.575C174.435 292.1 171.989 290.836 169.236 289.781C166.79 288.728 164.344 287.568 161.898 286.304C158.841 286.936 156.089 287.885 153.643 289.15C151.197 290.203 148.445 291.046 145.388 291.679C139.578 301.375 131.781 310.437 121.997 318.868C122.609 322.662 121.539 325.613 118.787 327.721C116.341 329.618 113.13 331.621 109.155 333.728C107.627 339.84 104.722 345.322 100.441 350.169C96.4664 355.016 91.7273 359.759 86.2237 364.396L86.6822 366.925C86.6822 367.768 86.2237 368.506 85.3064 369.139C84.6949 369.772 84.5421 370.825 84.8477 372.301C80.2615 376.094 76.4394 380.415 73.3818 385.263C70.3243 390.322 67.4197 395.485 64.6677 400.755C62.2216 406.025 59.7756 411.294 57.3295 416.563C55.1894 421.833 52.7433 426.786 49.9913 431.423C51.2144 433.32 51.8259 435.534 51.8259 438.063C51.8259 440.381 51.5203 442.699 50.9088 445.018C50.2973 447.337 49.9913 449.655 49.9913 451.973C49.9913 453.871 50.4501 455.662 51.3673 457.349C52.2846 459.245 53.9663 460.827 56.4124 462.09C60.0815 459.772 64.8206 458.613 70.63 458.613C73.9934 458.613 77.2039 458.929 80.2615 459.561C83.6246 460.194 86.6822 461.037 89.4342 462.09C90.6572 463.776 91.2687 465.252 91.2687 466.517C91.2687 467.992 90.6572 469.258 89.4342 470.311C88.5167 471.576 87.2937 472.735 85.7651 473.789C84.5421 475.054 83.1661 476.213 81.6373 477.266C80.4143 478.321 79.65 479.585 79.344 481.061C72.3118 481.482 65.2792 482.22 58.2469 483.274C51.5203 484.328 44.9464 485.908 38.5255 488.016C34.8564 487.595 31.4931 486.646 28.4355 485.171C25.6837 483.906 22.4732 482.958 18.8041 482.325C14.8293 478.742 11.7718 474.842 9.63146 470.627C7.1854 466.411 4.12783 462.407 0.45874 458.613C0.45874 453.765 1.37601 448.918 3.21056 444.069C5.0451 439.432 7.03252 434.795 9.17282 430.158C11.0074 425.521 12.689 420.778 14.2178 415.931C15.7466 411.294 16.2052 406.551 15.5937 401.704C18.6513 400.649 21.0974 398.963 22.9319 396.645C24.7664 394.537 26.1423 392.113 27.0597 389.373C28.2827 386.844 29.3528 384.209 30.2701 381.469C31.1873 378.94 32.2574 376.621 33.4804 374.513C36.8439 373.038 39.29 371.141 40.8186 368.823C42.6532 366.715 45.2522 364.923 48.6155 363.447C48.6155 363.027 48.4627 362.604 48.1568 362.184C48.1568 361.972 48.1568 361.656 48.1568 361.235C47.8512 360.813 47.5453 360.497 47.2397 360.286C46.9338 360.286 46.781 360.075 46.781 359.654C46.781 359.232 46.6282 358.811 46.3222 358.389C46.3222 358.178 46.4752 357.862 46.781 357.441L51.3673 353.33C55.6479 349.537 58.8585 346.059 60.9986 342.897C63.1391 339.524 65.5851 335.73 68.3368 331.515C70.7828 327.511 73.8404 323.505 77.5095 319.501C81.1786 315.496 84.6949 311.492 88.0582 307.486C96.0079 297.581 103.652 287.779 110.99 278.083C118.634 268.176 126.737 258.376 135.298 248.681C132.852 247.416 130.864 245.94 129.335 244.254C127.807 242.357 126.278 240.46 124.749 238.563C123.526 236.666 122.15 234.875 120.621 233.189C119.092 231.291 116.952 229.711 114.2 228.446C107.78 216.853 100.441 205.577 92.1858 194.616C84.2361 183.446 76.4394 172.38 68.7955 161.419C66.0437 157.414 63.4447 153.41 60.9986 149.405C58.8585 145.189 56.2594 141.291 53.2019 137.707C52.2846 136.652 51.2144 136.232 49.9913 136.442C48.7683 136.652 47.6982 136.336 46.781 135.493C44.3349 130.646 42.1946 126.325 40.3601 122.531L33.4804 108.304C34.7035 104.088 37.4554 101.032 41.7361 99.1348C46.0167 97.2378 51.0616 96.2893 56.871 96.2893C61.4573 96.2893 66.3494 96.8163 71.5473 97.8701C74.2991 99.9779 76.898 102.296 79.344 104.826C81.7901 107.144 84.6949 109.357 88.0582 111.465V119.686C96.9252 132.121 105.181 144.557 112.825 156.992C120.774 169.429 129.335 181.864 138.508 194.3C141.871 194.722 144.623 195.67 146.764 197.146C148.904 198.622 150.891 200.202 152.726 201.888C154.56 203.575 156.395 205.155 158.229 206.63C160.37 208.106 163.274 208.949 166.944 209.159C168.167 208.739 170.001 207.368 172.447 205.049C174.893 202.52 177.339 199.885 179.785 197.146C182.538 194.195 184.831 191.35 186.665 188.609C188.805 185.869 189.876 183.972 189.876 182.918V180.705C210.055 161.525 227.025 141.185 240.784 119.686C243.841 118.631 246.287 117.261 248.122 115.575C249.956 113.678 251.638 111.781 253.167 109.884C255.002 107.777 256.836 105.774 258.671 103.877C260.505 101.98 262.798 100.399 265.551 99.1348C267.079 94.7085 269.525 90.5984 272.889 86.8045C276.251 83.0105 279.767 79.2165 283.436 75.4226C287.105 71.6286 290.623 67.8346 293.985 64.0407C297.349 60.0358 299.949 55.8203 301.782 51.3941C305.146 50.551 307.745 49.1809 309.58 47.2839C311.719 45.387 313.554 43.3846 315.083 41.2769C316.611 39.1691 318.294 37.1667 320.127 35.2697C321.963 33.3727 324.561 32.0027 327.925 31.1596C330.065 24.2039 334.194 18.5131 340.309 14.0867C346.424 9.66045 354.372 6.28804 364.156 3.9695L365.992 0.491699C367.215 0.913251 369.355 1.3348 372.412 1.75635C375.47 1.96713 378.374 2.28329 381.127 2.70485C384.184 2.91562 386.784 3.33717 388.923 3.9695C391.369 4.60183 392.592 5.55032 392.592 6.81497Z" fill="#FFFDFE"/>
</svg>
